# xmcd
#
# Track frame offsets: 
#        150
#        20399
#        40493
#        59306
#        82254
#        103437
#        121002
#        146727
#        165716
#        174027
#        191141
#        196067
#        218608
#        235352
#        251504
#        269977
#        284429
#        305340
#        321827
#        341766
#
# Disc length: 4732 seconds
#
# Revision: 6
# Processed by: cddbd v1.5.2PL0 Copyright (c) Steve Scherf et al.
# Submitted via: ExactAudioCopyFreeDBPlugin 1.0
#
DISCID=32127a14
DTITLE=Tori Amos - Tales Of A Librarian (A Tori Amos Coillection)
DYEAR=2003
DGENRE=Pop
TTITLE0=Precious Things
TTITLE1=Angels
TTITLE2=Silent All These Years
TTITLE3=Cornflake Girl
TTITLE4=Mary
TTITLE5=God
TTITLE6=Winter
TTITLE7=Spark
TTITLE8=Way Down
TTITLE9=Professional Widow
TTITLE10=Mr. Zebra
TTITLE11=Crucify
TTITLE12=Me And A Gun
TTITLE13=Bliss
TTITLE14=Playboy Mommy
TTITLE15=Baker Baker
TTITLE16=Tear In Your Hand
TTITLE17=Sweet Dreams
TTITLE18=Jackie's Strength
TTITLE19=Snow Cherries From France
EXTD=YEAR: 2003
EXTT0=
EXTT1=
EXTT2=
EXTT3=
EXTT4=
EXTT5=
EXTT6=
EXTT7=
EXTT8=
EXTT9=
EXTT10=
EXTT11=
EXTT12=
EXTT13=
EXTT14=
EXTT15=
EXTT16=
EXTT17=
EXTT18=
EXTT19=
PLAYORDER=
